<?xml version="1.0" standalone="yes"?>

<svg version="1.1" viewBox="0.0 0.0 960.0 720.0" fill="none" stroke="none" stroke-linecap="square" stroke-miterlimit="10" xmlns="http://www.w3.org/2000/svg" xmlns:xlink="http://www.w3.org/1999/xlink"><clipPath id="p.0"><path d="m0 0l960.0 0l0 720.0l-960.0 0l0 -720.0z" clip-rule="nonzero"></path></clipPath><g clip-path="url(#p.0)"><path fill="#000000" fill-opacity="0.0" d="m0 0l960.0 0l0 720.0l-960.0 0z" fill-rule="nonzero"></path><path fill="#f3f3f3" d="m436.76492 77.4288l0 0c-0.8772583 -4.117653 2.0029907 -8.193878 7.418579 -10.498978c5.4155884 -2.305107 12.416718 -2.4348297 18.032562 -0.3341217l0 0c1.9893188 -2.3941727 5.63031 -4.047184 9.821686 -4.45903c4.1913757 -0.41184616 8.440857 0.46584702 11.462982 2.3675919l0 0c1.6946411 -2.1707115 5.0220947 -3.6291504 8.801575 -3.857792c3.7795105 -0.2286377 7.476166 0.80488205 9.778229 2.7338142l0 0c3.061615 -2.300949 7.932678 -3.2697449 12.505524 -2.4871826c4.572815 0.78256226 8.026062 3.1759262 8.8654785 6.14447l0 0c3.7509766 0.6534729 6.8754272 2.314705 8.566162 4.5544815c1.6907349 2.239769 1.7818604 4.8383713 0.2498169 7.1243973l0 0c3.6936035 3.0703888 4.557617 7.161644 2.2696533 10.746986c-2.288025 3.5853348 -7.3842773 6.1260986 -13.387024 6.6741257c-0.042297363 3.3649673 -2.9317017 6.4526215 -7.5545044 8.072845c-4.622772 1.620224 -10.25708 1.5200119 -14.731232 -0.26200867c-1.9057312 4.030136 -7.269745 6.995468 -13.774597 7.614868c-6.5048523 0.6194 -12.9844055 -1.2181702 -16.639252 -4.7188187c-4.4801025 1.7254791 -9.855835 2.2225342 -14.914551 1.3790436c-5.058716 -0.84349823 -9.374298 -2.956482 -11.973236 -5.8623276l0 0c-4.578064 0.34217072 -9.004456 -1.1727676 -11.082336 -3.7929535c-2.0778503 -2.6201859 -1.3648987 -5.7878494 1.7850647 -7.9308853l0 0c-4.0837708 -1.5351715 -6.167572 -4.581459 -5.1647644 -7.5503464c1.0028381 -2.9688797 4.86499 -5.187599 9.57254 -5.4991837z" fill-rule="nonzero"></path><path fill="#000000" fill-opacity="0.0" d="m432.26666 90.63703l0 0c1.927124 0.72444916 4.1534424 1.0530777 6.3799744 0.94176483m2.9162903 10.782341c0.957489 -0.07156372 1.8960266 -0.22310638 2.7913818 -0.45072937m24.095062 4.9338226c-0.6734619 -0.64502716 -1.2372742 -1.3342896 -1.6819153 -2.0560532m32.096954 -0.8401108l0 0c0.34744263 -0.73475647 0.5725403 -1.4909744 0.6715698 -2.2560425m21.613312 -5.5545197c0.045043945 -3.5825272 -3.140808 -6.8627243 -8.189148 -8.431656m19.306396 -8.989075c-0.8175659 1.2199249 -2.0656738 2.3020935 -3.6464233 3.1616745m-5.1688232 -14.840874l0 0c0.13934326 0.49263 0.20379639 0.9926605 0.19256592 1.4931717m-21.563171 -5.1503105l0 0c-0.7637024 0.5739708 -1.3929138 1.2153816 -1.8680115 1.9042473m-16.711945 -0.7805176l0 0c-0.40701294 0.5213318 -0.710907 1.0729904 -0.90475464 1.642273m-20.380249 0.4492035l0 0c1.188324 0.4445114 2.2876587 0.9795227 3.2738953 1.5932922m-28.7247 9.239868l0 0c0.120910645 0.56752014 0.3119812 1.1280441 0.5713501 1.6763229" fill-rule="nonzero"></path><path stroke="#000000" stroke-width="2.0" stroke-linejoin="round" stroke-linecap="butt" d="m436.76492 77.4288l0 0c-0.8772583 -4.117653 2.0029907 -8.193878 7.418579 -10.498978c5.4155884 -2.305107 12.416718 -2.4348297 18.032562 -0.3341217l0 0c1.9893188 -2.3941727 5.63031 -4.047184 9.821686 -4.45903c4.1913757 -0.41184616 8.440857 0.46584702 11.462982 2.3675919l0 0c1.6946411 -2.1707115 5.0220947 -3.6291504 8.801575 -3.857792c3.7795105 -0.2286377 7.476166 0.80488205 9.778229 2.7338142l0 0c3.061615 -2.300949 7.932678 -3.2697449 12.505524 -2.4871826c4.572815 0.78256226 8.026062 3.1759262 8.8654785 6.14447l0 0c3.7509766 0.6534729 6.8754272 2.314705 8.566162 4.5544815c1.6907349 2.239769 1.7818604 4.8383713 0.2498169 7.1243973l0 0c3.6936035 3.0703888 4.557617 7.161644 2.2696533 10.746986c-2.288025 3.5853348 -7.3842773 6.1260986 -13.387024 6.6741257c-0.042297363 3.3649673 -2.9317017 6.4526215 -7.5545044 8.072845c-4.622772 1.620224 -10.25708 1.5200119 -14.731232 -0.26200867c-1.9057312 4.030136 -7.269745 6.995468 -13.774597 7.614868c-6.5048523 0.6194 -12.9844055 -1.2181702 -16.639252 -4.7188187c-4.4801025 1.7254791 -9.855835 2.2225342 -14.914551 1.3790436c-5.058716 -0.84349823 -9.374298 -2.956482 -11.973236 -5.8623276l0 0c-4.578064 0.34217072 -9.004456 -1.1727676 -11.082336 -3.7929535c-2.0778503 -2.6201859 -1.3648987 -5.7878494 1.7850647 -7.9308853l0 0c-4.0837708 -1.5351715 -6.167572 -4.581459 -5.1647644 -7.5503464c1.0028381 -2.9688797 4.86499 -5.187599 9.57254 -5.4991837z" fill-rule="nonzero"></path><path stroke="#000000" stroke-width="2.0" stroke-linejoin="round" stroke-linecap="butt" d="m432.26666 90.63703l0 0c1.927124 0.72444916 4.1534424 1.0530777 6.3799744 0.94176483m2.9162903 10.782341c0.957489 -0.07156372 1.8960266 -0.22310638 2.7913818 -0.45072937m24.095062 4.9338226c-0.6734619 -0.64502716 -1.2372742 -1.3342896 -1.6819153 -2.0560532m32.096954 -0.8401108l0 0c0.34744263 -0.73475647 0.5725403 -1.4909744 0.6715698 -2.2560425m21.613312 -5.5545197c0.045043945 -3.5825272 -3.140808 -6.8627243 -8.189148 -8.431656m19.306396 -8.989075c-0.8175659 1.2199249 -2.0656738 2.3020935 -3.6464233 3.1616745m-5.1688232 -14.840874l0 0c0.13934326 0.49263 0.20379639 0.9926605 0.19256592 1.4931717m-21.563171 -5.1503105l0 0c-0.7637024 0.5739708 -1.3929138 1.2153816 -1.8680115 1.9042473m-16.711945 -0.7805176l0 0c-0.40701294 0.5213318 -0.710907 1.0729904 -0.90475464 1.642273m-20.380249 0.4492035l0 0c1.188324 0.4445114 2.2876587 0.9795227 3.2738953 1.5932922m-28.7247 9.239868l0 0c0.120910645 0.56752014 0.3119812 1.1280441 0.5713501 1.6763229" fill-rule="nonzero"></path><path fill="#000000" d="m460.10767 91.70916l0 -13.59375l2.75 0l0 13.59375l-2.75 0zm14.292694 0l-2.421875 0l0 -1.453125q-0.609375 0.84375 -1.4375 1.265625q-0.8125 0.40625 -1.640625 0.40625q-1.703125 0 -2.921875 -1.359375q-1.203125 -1.375 -1.203125 -3.828125q0 -2.5 1.171875 -3.796875q1.1875 -1.3125 2.984375 -1.3125q1.65625 0 2.859375 1.375l0 -4.890625l2.609375 0l0 13.59375zm-6.96875 -5.140625q0 1.578125 0.4375 2.28125q0.640625 1.015625 1.765625 1.015625q0.90625 0 1.53125 -0.765625q0.625 -0.765625 0.625 -2.28125q0 -1.703125 -0.609375 -2.4375q-0.609375 -0.75 -1.5625 -0.75q-0.9375 0 -1.5625 0.734375q-0.625 0.734375 -0.625 2.203125zm15.020966 2.0l2.609375 0.4375q-0.5 1.4375 -1.59375 2.1875q-1.078125 0.734375 -2.703125 0.734375q-2.5625 0 -3.796875 -1.671875q-0.96875 -1.34375 -0.96875 -3.40625q0 -2.4375 1.265625 -3.828125q1.28125 -1.390625 3.25 -1.390625q2.1875 0 3.453125 1.453125q1.28125 1.453125 1.234375 4.453125l-6.53125 0q0.015625 1.15625 0.625 1.8125q0.609375 0.640625 1.5 0.640625q0.609375 0 1.03125 -0.328125q0.421875 -0.34375 0.625 -1.09375zm0.15625 -2.625q-0.03125 -1.140625 -0.59375 -1.71875q-0.546875 -0.59375 -1.34375 -0.59375q-0.859375 0 -1.40625 0.625q-0.5625 0.609375 -0.546875 1.6875l3.890625 0zm6.4694824 -1.078125l-2.359375 -0.4375q0.390625 -1.421875 1.359375 -2.109375q0.984375 -0.6875 2.90625 -0.6875q1.734375 0 2.59375 0.421875q0.859375 0.40625 1.203125 1.046875q0.34375 0.625 0.34375 2.328125l-0.03125 3.046875q0 1.296875 0.125 1.921875q0.125 0.609375 0.46875 1.3125l-2.578125 0q-0.09375 -0.265625 -0.25 -0.765625q-0.0625 -0.234375 -0.09375 -0.3125q-0.65625 0.65625 -1.421875 0.984375q-0.765625 0.3125 -1.625 0.3125q-1.515625 0 -2.40625 -0.8125q-0.875 -0.828125 -0.875 -2.09375q0 -0.84375 0.390625 -1.484375q0.40625 -0.65625 1.125 -1.0q0.71875 -0.359375 2.078125 -0.625q1.828125 -0.328125 2.53125 -0.625l0 -0.265625q0 -0.75 -0.375 -1.0625q-0.359375 -0.328125 -1.390625 -0.328125q-0.703125 0 -1.09375 0.28125q-0.390625 0.265625 -0.625 0.953125zm3.484375 2.109375q-0.5 0.171875 -1.59375 0.40625q-1.078125 0.234375 -1.40625 0.453125q-0.515625 0.359375 -0.515625 0.921875q0 0.546875 0.40625 0.953125q0.40625 0.390625 1.046875 0.390625q0.703125 0 1.34375 -0.46875q0.46875 -0.359375 0.625 -0.859375q0.09375 -0.34375 0.09375 -1.28125l0 -0.515625z" fill-rule="nonzero"></path><path fill="#cfe2f3" d="m442.19012 150.44882l75.61859 0l0 0c9.90625 0 17.936829 9.32164 17.936829 20.820465c0 11.49884 -8.030579 20.82048 -17.936829 20.82048l-75.61859 0l0 0c-9.90625 0 -17.936829 -9.32164 -17.936829 -20.82048c0 -11.498825 8.030579 -20.820465 17.936829 -20.820465z" fill-rule="nonzero"></path><path stroke="#000000" stroke-width="2.0" stroke-linejoin="round" stroke-linecap="butt" d="m442.19012 150.44882l75.61859 0l0 0c9.90625 0 17.936829 9.32164 17.936829 20.820465c0 11.49884 -8.030579 20.82048 -17.936829 20.82048l-75.61859 0l0 0c-9.90625 0 -17.936829 -9.32164 -17.936829 -20.82048c0 -11.498825 8.030579 -20.820465 17.936829 -20.820465z" fill-rule="nonzero"></path><path fill="#000000" d="m455.27084 178.18929l-2.984375 0l-1.1875 -3.09375l-5.4375 0l-1.125 3.09375l-2.90625 0l5.296875 -13.59375l2.90625 0l5.4375 13.59375zm-5.046875 -5.375l-1.875 -5.046875l-1.84375 5.046875l3.71875 0zm15.207336 5.375l-2.609375 0l0 -5.03125q0 -1.59375 -0.171875 -2.0625q-0.15625 -0.46875 -0.53125 -0.71875q-0.375 -0.265625 -0.90625 -0.265625q-0.6875 0 -1.234375 0.375q-0.53125 0.359375 -0.734375 0.984375q-0.1875 0.609375 -0.1875 2.25l0 4.46875l-2.609375 0l0 -9.859375l2.421875 0l0 1.453125q1.296875 -1.671875 3.25 -1.671875q0.859375 0 1.578125 0.3125q0.71875 0.3125 1.078125 0.796875q0.359375 0.484375 0.5 1.09375q0.15625 0.609375 0.15625 1.75l0 6.125zm4.3803406 -6.84375l-2.359375 -0.4375q0.390625 -1.421875 1.359375 -2.109375q0.984375 -0.6875 2.90625 -0.6875q1.734375 0 2.59375 0.421875q0.859375 0.40625 1.203125 1.046875q0.34375 0.625 0.34375 2.328125l-0.03125 3.046875q0 1.296875 0.125 1.921875q0.125 0.609375 0.46875 1.3125l-2.578125 0q-0.09375 -0.265625 -0.25 -0.765625q-0.0625 -0.234375 -0.09375 -0.3125q-0.65625 0.65625 -1.421875 0.984375q-0.765625 0.3125 -1.625 0.3125q-1.515625 0 -2.40625 -0.8125q-0.875 -0.828125 -0.875 -2.09375q0 -0.84375 0.390625 -1.484375q0.40625 -0.65625 1.125 -1.0q0.71875 -0.359375 2.078125 -0.625q1.828125 -0.328125 2.53125 -0.625l0 -0.265625q0 -0.75 -0.375 -1.0625q-0.359375 -0.328125 -1.390625 -0.328125q-0.703125 0 -1.09375 0.28125q-0.390625 0.265625 -0.625 0.953125zm3.484375 2.109375q-0.5 0.171875 -1.59375 0.40625q-1.078125 0.234375 -1.40625 0.453125q-0.515625 0.359375 -0.515625 0.921875q0 0.546875 0.40625 0.953125q0.40625 0.390625 1.046875 0.390625q0.703125 0 1.34375 -0.46875q0.46875 -0.359375 0.625 -0.859375q0.09375 -0.34375 0.09375 -1.28125l0 -0.515625zm4.9382324 4.734375l0 -13.59375l2.609375 0l0 13.59375l-2.609375 0zm3.9489136 -9.859375l2.78125 0l2.359375 7.0l2.296875 -7.0l2.703125 0l-3.484375 9.484375l-0.625 1.71875q-0.34375 0.859375 -0.65625 1.3125q-0.296875 0.46875 -0.703125 0.75q-0.40625 0.28125 -1.0 0.4375q-0.59375 0.15625 -1.328125 0.15625q-0.75 0 -1.46875 -0.15625l-0.234375 -2.046875q0.609375 0.125 1.09375 0.125q0.921875 0 1.34375 -0.53125q0.4375 -0.53125 0.671875 -1.359375l-3.75 -9.890625zm10.703857 7.046875l2.6093445 -0.390625q0.171875 0.75 0.671875 1.15625q0.515625 0.390625 1.4375 0.390625q1.0 0 1.515625 -0.375q0.34375 -0.265625 0.34375 -0.703125q0 -0.296875 -0.1875 -0.484375q-0.1875 -0.1875 -0.875 -0.34375q-3.140625 -0.703125 -4.0 -1.265625q-1.1562195 -0.796875 -1.1562195 -2.21875q0 -1.28125 0.9999695 -2.15625q1.015625 -0.875 3.140625 -0.875q2.03125 0 3.0 0.65625q0.984375 0.65625 1.359375 1.953125l-2.453125 0.453125q-0.15625 -0.578125 -0.609375 -0.875q-0.4375 -0.3125 -1.25 -0.3125q-1.03125 0 -1.46875 0.296875q-0.296875 0.203125 -0.296875 0.515625q0 0.28125 0.25 0.484375q0.359375 0.25 2.4375 0.734375q2.078125 0.46875 2.90625 1.15625q0.828125 0.6875 0.828125 1.9375q0 1.359375 -1.140625 2.328125q-1.125 0.96875 -3.34375 0.96875q-2.015625 0 -3.1875 -0.8125q-1.1718445 -0.8125 -1.5312195 -2.21875zm11.281952 -8.375l0 -2.40625l2.609375 0l0 2.40625l-2.609375 0zm0 11.1875l0 -9.859375l2.609375 0l0 9.859375l-2.609375 0zm4.2770386 -2.8125l2.609375 -0.390625q0.171875 0.75 0.671875 1.15625q0.5156555 0.390625 1.4375305 0.390625q1.0 0 1.515625 -0.375q0.34375 -0.265625 0.34375 -0.703125q0 -0.296875 -0.1875 -0.484375q-0.1875 -0.1875 -0.875 -0.34375q-3.1406555 -0.703125 -4.0000305 -1.265625q-1.15625 -0.796875 -1.15625 -2.21875q0 -1.28125 1.0 -2.15625q1.015625 -0.875 3.1406555 -0.875q2.03125 0 3.0 0.65625q0.984375 0.65625 1.359375 1.953125l-2.453125 0.453125q-0.15625 -0.578125 -0.609375 -0.875q-0.4375 -0.3125 -1.25 -0.3125q-1.0312805 0 -1.4687805 0.296875q-0.296875 0.203125 -0.296875 0.515625q0 0.28125 0.25 0.484375q0.359375 0.25 2.4375305 0.734375q2.078125 0.46875 2.90625 1.15625q0.828125 0.6875 0.828125 1.9375q0 1.359375 -1.140625 2.328125q-1.125 0.96875 -3.34375 0.96875q-2.0156555 0 -3.1875305 -0.8125q-1.171875 -0.8125 -1.53125 -2.21875z" fill-rule="nonzero"></path><path fill="#cfe2f3" d="m442.19012 231.04724l75.61859 0l0 0c9.90625 0 17.936829 9.32164 17.936829 20.82048c0 11.498825 -8.030579 20.82048 -17.936829 20.82048l-75.61859 0l0 0c-9.90625 0 -17.936829 -9.321655 -17.936829 -20.82048c0 -11.49884 8.030579 -20.82048 17.936829 -20.82048z" fill-rule="nonzero"></path><path stroke="#000000" stroke-width="2.0" stroke-linejoin="round" stroke-linecap="butt" d="m442.19012 231.04724l75.61859 0l0 0c9.90625 0 17.936829 9.32164 17.936829 20.82048c0 11.498825 -8.030579 20.82048 -17.936829 20.82048l-75.61859 0l0 0c-9.90625 0 -17.936829 -9.321655 -17.936829 -20.82048c0 -11.49884 8.030579 -20.82048 17.936829 -20.82048z" fill-rule="nonzero"></path><path fill="#000000" d="m450.2746 245.19397l5.015625 0q1.703125 0 2.59375 0.25q1.1875 0.359375 2.046875 1.265625q0.859375 0.890625 1.296875 2.203125q0.453125 1.296875 0.453125 3.203125q0 1.6875 -0.421875 2.890625q-0.515625 1.484375 -1.453125 2.40625q-0.71875 0.703125 -1.9375 1.09375q-0.90625 0.28125 -2.421875 0.28125l-5.171875 0l0 -13.59375zm2.75 2.296875l0 9.0l2.046875 0q1.140625 0 1.65625 -0.125q0.671875 -0.171875 1.109375 -0.5625q0.4375 -0.40625 0.71875 -1.3125q0.28125 -0.921875 0.28125 -2.5q0 -1.578125 -0.28125 -2.421875q-0.28125 -0.84375 -0.78125 -1.3125q-0.5 -0.46875 -1.265625 -0.640625q-0.578125 -0.125 -2.25 -0.125l-1.234375 0zm16.410461 8.15625l2.609375 0.4375q-0.5 1.4375 -1.59375 2.1875q-1.078125 0.734375 -2.703125 0.734375q-2.5625 0 -3.796875 -1.671875q-0.96875 -1.34375 -0.96875 -3.40625q0 -2.4375 1.265625 -3.828125q1.28125 -1.390625 3.25 -1.390625q2.1875 0 3.453125 1.453125q1.28125 1.453125 1.234375 4.453125l-6.53125 0q0.015625 1.15625 0.625 1.8125q0.609375 0.640625 1.5 0.640625q0.609375 0 1.03125 -0.328125q0.421875 -0.34375 0.625 -1.09375zm0.15625 -2.625q-0.03125 -1.140625 -0.59375 -1.71875q-0.546875 -0.59375 -1.34375 -0.59375q-0.859375 0 -1.40625 0.625q-0.5625 0.609375 -0.546875 1.6875l3.890625 0zm3.610077 2.953125l2.609375 -0.390625q0.171875 0.75 0.671875 1.15625q0.515625 0.390625 1.4375 0.390625q1.0 0 1.515625 -0.375q0.34375 -0.265625 0.34375 -0.703125q0 -0.296875 -0.1875 -0.484375q-0.1875 -0.1875 -0.875 -0.34375q-3.140625 -0.703125 -4.0 -1.265625q-1.15625 -0.796875 -1.15625 -2.21875q0 -1.28125 1.0 -2.15625q1.015625 -0.875 3.140625 -0.875q2.03125 0 3.0 0.65625q0.984375 0.65625 1.359375 1.953125l-2.453125 0.453125q-0.15625 -0.578125 -0.609375 -0.875q-0.4375 -0.3125 -1.25 -0.3125q-1.03125 0 -1.46875 0.296875q-0.296875 0.203125 -0.296875 0.515625q0 0.28125 0.25 0.484375q0.359375 0.25 2.4375 0.734375q2.078125 0.46875 2.90625 1.15625q0.828125 0.6875 0.828125 1.9375q0 1.359375 -1.140625 2.328125q-1.125 0.96875 -3.34375 0.96875q-2.015625 0 -3.1875 -0.8125q-1.171875 -0.8125 -1.53125 -2.21875zm11.281982 -8.375l0 -2.40625l2.609375 0l0 2.40625l-2.609375 0zm0 11.1875l0 -9.859375l2.609375 0l0 9.859375l-2.609375 0zm4.9489136 0.65625l2.96875 0.359375q0.078125 0.515625 0.34375 0.703125q0.375 0.28125 1.171875 0.28125q1.03125 0 1.53125 -0.296875q0.34375 -0.203125 0.515625 -0.65625q0.125 -0.328125 0.125 -1.203125l0 -1.4375q-1.171875 1.59375 -2.953125 1.59375q-1.984375 0 -3.140625 -1.671875q-0.90625 -1.328125 -0.90625 -3.3125q0 -2.46875 1.1875 -3.78125q1.1875 -1.3125 2.96875 -1.3125q1.828125 0 3.015625 1.609375l0 -1.390625l2.4375 0l0 8.84375q0 1.75 -0.296875 2.609375q-0.28125 0.859375 -0.796875 1.34375q-0.515625 0.5 -1.390625 0.78125q-0.859375 0.28125 -2.1875 0.28125q-2.515625 0 -3.5625 -0.859375q-1.046875 -0.859375 -1.046875 -2.171875q0 -0.140625 0.015625 -0.3125zm2.328125 -5.78125q0 1.5625 0.609375 2.296875q0.609375 0.71875 1.5 0.71875q0.953125 0 1.609375 -0.734375q0.65625 -0.75 0.65625 -2.21875q0 -1.53125 -0.640625 -2.265625q-0.625 -0.75 -1.578125 -0.75q-0.9375 0 -1.546875 0.734375q-0.609375 0.71875 -0.609375 2.21875zm18.270966 5.125l-2.609375 0l0 -5.03125q0 -1.59375 -0.171875 -2.0625q-0.15625 -0.46875 -0.53125 -0.71875q-0.375 -0.265625 -0.90625 -0.265625q-0.6875 0 -1.234375 0.375q-0.53125 0.359375 -0.734375 0.984375q-0.1875 0.609375 -0.1875 2.25l0 4.46875l-2.609375 0l0 -9.859375l2.421875 0l0 1.453125q1.296875 -1.671875 3.25 -1.671875q0.859375 0 1.578125 0.3125q0.71875 0.3125 1.078125 0.796875q0.359375 0.484375 0.5 1.09375q0.15625 0.609375 0.15625 1.75l0 6.125z" fill-rule="nonzero"></path><path fill="#cfe2f3" d="m442.19012 311.64566l75.61859 0l0 0c9.90625 0 17.936829 9.321655 17.936829 20.820496c0 11.49881 -8.030579 20.820465 -17.936829 20.820465l-75.61859 0l0 0c-9.90625 0 -17.936829 -9.321655 -17.936829 -20.820465c0 -11.49884 8.030579 -20.820496 17.936829 -20.820496z" fill-rule="nonzero"></path><path stroke="#000000" stroke-width="2.0" stroke-linejoin="round" stroke-linecap="butt" d="m442.19012 311.64566l75.61859 0l0 0c9.90625 0 17.936829 9.321655 17.936829 20.820496c0 11.49881 -8.030579 20.820465 -17.936829 20.820465l-75.61859 0l0 0c-9.90625 0 -17.936829 -9.321655 -17.936829 -20.820465c0 -11.49884 8.030579 -20.820496 17.936829 -20.820496z" fill-rule="nonzero"></path><path fill="#000000" d="m457.95746 334.38614l2.671875 0.84375q-0.609375 2.21875 -2.046875 3.3125q-1.421875 1.078125 -3.609375 1.078125q-2.703125 0 -4.453125 -1.84375q-1.734375 -1.859375 -1.734375 -5.078125q0 -3.390625 1.75 -5.265625q1.75 -1.875 4.609375 -1.875q2.5 0 4.046875 1.46875q0.9375 0.875 1.390625 2.5l-2.71875 0.65625q-0.234375 -1.0625 -1.0 -1.671875q-0.765625 -0.609375 -1.859375 -0.609375q-1.515625 0 -2.453125 1.09375q-0.9375 1.078125 -0.9375 3.5q0 2.578125 0.921875 3.6875q0.921875 1.09375 2.40625 1.09375q1.109375 0 1.890625 -0.6875q0.78125 -0.703125 1.125 -2.203125zm4.1604614 -0.0625q0 -1.296875 0.640625 -2.515625q0.640625 -1.21875 1.8125 -1.859375q1.171875 -0.640625 2.609375 -0.640625q2.25 0 3.671875 1.453125q1.421875 1.453125 1.421875 3.671875q0 2.234375 -1.4375 3.703125q-1.4375 1.46875 -3.625 1.46875q-1.359375 0 -2.59375 -0.609375q-1.21875 -0.609375 -1.859375 -1.796875q-0.640625 -1.1875 -0.640625 -2.875zm2.671875 0.140625q0 1.46875 0.6875 2.25q0.703125 0.765625 1.71875 0.765625q1.015625 0 1.703125 -0.765625q0.703125 -0.78125 0.703125 -2.265625q0 -1.453125 -0.703125 -2.234375q-0.6875 -0.78125 -1.703125 -0.78125q-1.015625 0 -1.71875 0.78125q-0.6875 0.78125 -0.6875 2.25zm18.364716 4.921875l-2.421875 0l0 -1.453125q-0.609375 0.84375 -1.4375 1.265625q-0.8125 0.40625 -1.640625 0.40625q-1.703125 0 -2.921875 -1.359375q-1.203125 -1.375 -1.203125 -3.828125q0 -2.5 1.171875 -3.796875q1.1875 -1.3125 2.984375 -1.3125q1.65625 0 2.859375 1.375l0 -4.890625l2.609375 0l0 13.59375zm-6.96875 -5.140625q0 1.578125 0.4375 2.28125q0.640625 1.015625 1.765625 1.015625q0.90625 0 1.53125 -0.765625q0.625 -0.765625 0.625 -2.28125q0 -1.703125 -0.609375 -2.4375q-0.609375 -0.75 -1.5625 -0.75q-0.9375 0 -1.5625 0.734375q-0.625 0.734375 -0.625 2.203125zm9.317871 -6.046875l0 -2.40625l2.609375 0l0 2.40625l-2.609375 0zm0 11.1875l0 -9.859375l2.609375 0l0 9.859375l-2.609375 0zm14.152039 0l-2.609375 0l0 -5.03125q0 -1.59375 -0.171875 -2.0625q-0.15625 -0.46875 -0.53125 -0.71875q-0.375 -0.265625 -0.90625 -0.265625q-0.6875 0 -1.234375 0.375q-0.53125 0.359375 -0.734375 0.984375q-0.1875 0.609375 -0.1875 2.25l0 4.46875l-2.609375 0l0 -9.859375l2.421875 0l0 1.453125q1.296875 -1.671875 3.25 -1.671875q0.859375 0 1.578125 0.3125q0.71875 0.3125 1.078125 0.796875q0.359375 0.484375 0.5 1.09375q0.15625 0.609375 0.15625 1.75l0 6.125zm2.1928406 0.65625l2.96875 0.359375q0.078125 0.515625 0.34375 0.703125q0.375 0.28125 1.171875 0.28125q1.03125 0 1.53125 -0.296875q0.34375 -0.203125 0.515625 -0.65625q0.125 -0.328125 0.125 -1.203125l0 -1.4375q-1.171875 1.59375 -2.953125 1.59375q-1.984375 0 -3.140625 -1.671875q-0.90625 -1.328125 -0.90625 -3.3125q0 -2.46875 1.1875 -3.78125q1.1875 -1.3125 2.96875 -1.3125q1.828125 0 3.015625 1.609375l0 -1.390625l2.4375 0l0 8.84375q0 1.75 -0.296875 2.609375q-0.28125 0.859375 -0.796875 1.34375q-0.515625 0.5 -1.390625 0.78125q-0.859375 0.28125 -2.1875 0.28125q-2.515625 0 -3.5625 -0.859375q-1.046875 -0.859375 -1.046875 -2.171875q0 -0.140625 0.015625 -0.3125zm2.328125 -5.78125q0 1.5625 0.609375 2.296875q0.609375 0.71875 1.5 0.71875q0.953125 0 1.609375 -0.734375q0.65625 -0.75 0.65625 -2.21875q0 -1.53125 -0.640625 -2.265625q-0.625 -0.75 -1.578125 -0.75q-0.9375 0 -1.546875 0.734375q-0.609375 0.71875 -0.609375 2.21875z" fill-rule="nonzero"></path><path fill="#f9cb9c" d="m427.6157 394.58792l103.98428 0l0 31.228363l-103.98428 0z" fill-rule="nonzero"></path><path fill="#c7a27c" d="m531.6 394.58792l10.409424 -10.409454l0 31.228363l-10.409424 10.409454z" fill-rule="nonzero"></path><path fill="#fad5af" d="m427.6157 394.58792l10.409454 -10.409454l103.98425 0l-10.409424 10.409454z" fill-rule="nonzero"></path><path fill="#000000" fill-opacity="0.0" d="m427.6157 394.58792l10.409454 -10.409454l103.98425 0l0 31.228363l-10.409424 10.409454l-103.98428 0zm0 0l103.98428 0l10.409424 -10.409454m-10.409424 10.409454l0 31.228363" fill-rule="nonzero"></path><path stroke="#000000" stroke-width="2.0" stroke-linejoin="round" stroke-linecap="butt" d="m427.6157 394.58792l10.409454 -10.409454l103.98425 0l0 31.228363l-10.409424 10.409454l-103.98428 0zm0 0l103.98428 0l10.409424 -10.409454m-10.409424 10.409454l0 31.228363" fill-rule="nonzero"></path><path fill="#000000" d="m440.9013 412.70023l2.671875 -0.265625q0.234375 1.34375 0.96875 1.984375q0.75 0.625 2.0 0.625q1.328125 0 2.0 -0.5625q0.671875 -0.5625 0.671875 -1.3125q0 -0.484375 -0.28125 -0.8125q-0.28125 -0.34375 -0.984375 -0.59375q-0.484375 -0.171875 -2.203125 -0.59375q-2.203125 -0.546875 -3.09375 -1.34375q-1.265625 -1.125 -1.265625 -2.734375q0 -1.046875 0.59375 -1.953125q0.59375 -0.90625 1.703125 -1.375q1.109375 -0.46875 2.671875 -0.46875q2.5625 0 3.859375 1.125q1.296875 1.109375 1.359375 2.984375l-2.75 0.125q-0.171875 -1.046875 -0.75 -1.5q-0.578125 -0.46875 -1.75 -0.46875q-1.1875 0 -1.875 0.5q-0.4375 0.3125 -0.4375 0.84375q0 0.484375 0.421875 0.828125q0.515625 0.421875 2.515625 0.90625q2.0 0.46875 2.953125 0.984375q0.96875 0.5 1.515625 1.375q0.546875 0.875 0.546875 2.15625q0 1.171875 -0.65625 2.203125q-0.640625 1.015625 -1.828125 1.515625q-1.1875 0.484375 -2.96875 0.484375q-2.578125 0 -3.96875 -1.1875q-1.375 -1.1875 -1.640625 -3.46875zm12.521698 -0.640625q0 -1.296875 0.640625 -2.515625q0.640625 -1.21875 1.8125 -1.859375q1.171875 -0.640625 2.609375 -0.640625q2.25 0 3.671875 1.453125q1.421875 1.453125 1.421875 3.671875q0 2.234375 -1.4375 3.703125q-1.4375 1.46875 -3.625 1.46875q-1.359375 0 -2.59375 -0.609375q-1.21875 -0.609375 -1.859375 -1.796875q-0.640625 -1.1875 -0.640625 -2.875zm2.671875 0.140625q0 1.46875 0.6875 2.25q0.703125 0.765625 1.71875 0.765625q1.015625 0 1.703125 -0.765625q0.703125 -0.78125 0.703125 -2.265625q0 -1.453125 -0.703125 -2.234375q-0.6875 -0.78125 -1.703125 -0.78125q-1.015625 0 -1.71875 0.78125q-0.6875 0.78125 -0.6875 2.25zm8.177216 -4.9375l1.453125 0l0 -0.734375q0 -1.25 0.265625 -1.859375q0.265625 -0.609375 0.96875 -0.984375q0.71875 -0.390625 1.796875 -0.390625q1.109375 0 2.1875 0.328125l-0.359375 1.8125q-0.625 -0.140625 -1.203125 -0.140625q-0.5625 0 -0.8125 0.265625q-0.234375 0.265625 -0.234375 1.015625l0 0.6875l1.9375 0l0 2.0625l-1.9375 0l0 7.796875l-2.609375 0l0 -7.796875l-1.453125 0l0 -2.0625zm11.868927 0l0 2.078125l-1.78125 0l0 3.984375q0 1.203125 0.046875 1.40625q0.0625 0.1875 0.234375 0.328125q0.1875 0.125 0.453125 0.125q0.359375 0 1.046875 -0.25l0.21875 2.015625q-0.90625 0.390625 -2.0625 0.390625q-0.703125 0 -1.265625 -0.234375q-0.5625 -0.234375 -0.828125 -0.609375q-0.265625 -0.375 -0.375 -1.015625q-0.078125 -0.453125 -0.078125 -1.84375l0 -4.296875l-1.203125 0l0 -2.078125l1.203125 0l0 -1.953125l2.609375 -1.515625l0 3.46875l1.78125 0zm3.540802 9.859375l-3.125 -9.859375l2.53125 0l1.859375 6.46875l1.6875 -6.46875l2.515625 0l1.640625 6.46875l1.890625 -6.46875l2.5625 0l-3.15625 9.859375l-2.515625 0l-1.6875 -6.34375l-1.671875 6.34375l-2.53125 0zm14.620819 -6.84375l-2.359375 -0.4375q0.390625 -1.421875 1.359375 -2.109375q0.984375 -0.6875 2.90625 -0.6875q1.734375 0 2.59375 0.421875q0.859375 0.40625 1.203125 1.046875q0.34375 0.625 0.34375 2.328125l-0.03125 3.046875q0 1.296875 0.125 1.921875q0.125 0.609375 0.46875 1.3125l-2.578125 0q-0.09375 -0.265625 -0.25 -0.765625q-0.0625 -0.234375 -0.09375 -0.3125q-0.65625 0.65625 -1.421875 0.984375q-0.765625 0.3125 -1.625 0.3125q-1.515625 0 -2.40625 -0.8125q-0.875 -0.828125 -0.875 -2.09375q0 -0.84375 0.390625 -1.484375q0.40625 -0.65625 1.125 -1.0q0.71875 -0.359375 2.078125 -0.625q1.828125 -0.328125 2.53125 -0.625l0 -0.265625q0 -0.75 -0.375 -1.0625q-0.359375 -0.328125 -1.390625 -0.328125q-0.703125 0 -1.09375 0.28125q-0.390625 0.265625 -0.625 0.953125zm3.484375 2.109375q-0.5 0.171875 -1.59375 0.40625q-1.078125 0.234375 -1.40625 0.453125q-0.515625 0.359375 -0.515625 0.921875q0 0.546875 0.40625 0.953125q0.40625 0.390625 1.046875 0.390625q0.703125 0 1.34375 -0.46875q0.46875 -0.359375 0.625 -0.859375q0.09375 -0.34375 0.09375 -1.28125l0 -0.515625zm7.438202 4.734375l-2.609375 0l0 -9.859375l2.421875 0l0 1.40625q0.625 -0.984375 1.109375 -1.296875q0.5 -0.328125 1.140625 -0.328125q0.890625 0 1.71875 0.5l-0.8125 2.265625q-0.65625 -0.421875 -1.21875 -0.421875q-0.546875 0 -0.9375 0.296875q-0.375 0.296875 -0.59375 1.09375q-0.21875 0.78125 -0.21875 3.296875l0 3.046875zm10.463379 -3.140625l2.609375 0.4375q-0.5 1.4375 -1.59375 2.1875q-1.078125 0.734375 -2.703125 0.734375q-2.5624695 0 -3.7968445 -1.671875q-0.96875 -1.34375 -0.96875 -3.40625q0 -2.4375 1.265625 -3.828125q1.28125 -1.390625 3.2499695 -1.390625q2.1875 0 3.453125 1.453125q1.28125 1.453125 1.234375 4.453125l-6.5312195 0q0.015625 1.15625 0.6249695 1.8125q0.609375 0.640625 1.5 0.640625q0.609375 0 1.03125 -0.328125q0.421875 -0.34375 0.625 -1.09375zm0.15625 -2.625q-0.03125 -1.140625 -0.59375 -1.71875q-0.546875 -0.59375 -1.34375 -0.59375q-0.859375 0 -1.40625 0.625q-0.5624695 0.609375 -0.5468445 1.6875l3.8905945 0z" fill-rule="nonzero"></path><path fill="#000000" fill-opacity="0.0" d="m481.3448 111.440765l-1.3543396 39.02362" fill-rule="nonzero"></path><path stroke="#000000" stroke-width="2.0" stroke-linejoin="round" stroke-linecap="butt" d="m481.3448 111.44076l-0.93814087 27.030846" fill-rule="evenodd"></path><path fill="#000000" stroke="#000000" stroke-width="2.0" stroke-linecap="butt" d="m477.1052 138.35703l2.9866638 9.185318l3.616272 -8.9561615z" fill-rule="evenodd"></path><path fill="#000000" fill-opacity="0.0" d="m479.99942 192.08977l0 38.960632" fill-rule="nonzero"></path><path stroke="#000000" stroke-width="2.0" stroke-linejoin="round" stroke-linecap="butt" d="m479.99942 192.08977l0 26.960632" fill-rule="evenodd"></path><path fill="#000000" stroke="#000000" stroke-width="2.0" stroke-linecap="butt" d="m476.69595 219.0504l3.3034668 9.076202l3.3034668 -9.076202z" fill-rule="evenodd"></path><path fill="#000000" fill-opacity="0.0" d="m479.99942 272.6882l0 38.9606" fill-rule="nonzero"></path><path stroke="#000000" stroke-width="2.0" stroke-linejoin="round" stroke-linecap="butt" d="m479.99942 272.6882l0 26.960632" fill-rule="evenodd"></path><path fill="#000000" stroke="#000000" stroke-width="2.0" stroke-linecap="butt" d="m476.69595 299.64883l3.3034668 9.076202l3.3034668 -9.076202z" fill-rule="evenodd"></path><path fill="#000000" fill-opacity="0.0" d="m479.99942 353.28662l-0.3779602 41.29132" fill-rule="nonzero"></path><path stroke="#000000" stroke-width="2.0" stroke-linejoin="round" stroke-linecap="butt" d="m479.99942 353.28662l-0.26812744 29.29184" fill-rule="evenodd"></path><path fill="#000000" stroke="#000000" stroke-width="2.0" stroke-linecap="butt" d="m476.42798 382.54822l3.2202454 9.106049l3.3864136 -9.045563z" fill-rule="evenodd"></path><path fill="#000000" fill-opacity="0.0" d="m365.45984 251.13416l58.80316 0.724411" fill-rule="nonzero"></path><path stroke="#000000" stroke-width="2.0" stroke-linejoin="round" stroke-linecap="butt" d="m365.45984 251.13414l46.804077 0.5765991" fill-rule="evenodd"></path><path fill="#000000" stroke="#000000" stroke-width="2.0" stroke-linecap="butt" d="m412.2232 255.01395l9.116211 -3.1914062l-9.034821 -3.4150238z" fill-rule="evenodd"></path><path fill="#000000" fill-opacity="0.0" d="m343.87534 334.4819l80.37796 -2.015747" fill-rule="nonzero"></path><path stroke="#000000" stroke-width="2.0" stroke-linejoin="round" stroke-linecap="butt" d="m343.87534 334.4819l68.381714 -1.7149048" fill-rule="evenodd"></path><path fill="#000000" stroke="#000000" stroke-width="2.0" stroke-linecap="butt" d="m412.33987 336.06943l8.990509 -3.5299683l-9.156158 -3.0748901z" fill-rule="evenodd"></path><path fill="#000000" fill-opacity="0.0" d="m343.87534 173.28503l80.37796 -2.015747" fill-rule="nonzero"></path><path stroke="#000000" stroke-width="2.0" stroke-linejoin="round" stroke-linecap="butt" d="m343.87534 173.28505l68.381714 -1.7149048" fill-rule="evenodd"></path><path fill="#000000" stroke="#000000" stroke-width="2.0" stroke-linecap="butt" d="m412.33987 174.87257l8.990509 -3.5299835l-9.156158 -3.0748749z" fill-rule="evenodd"></path><path fill="#cfe2f3" d="m323.8189 337.68643l0 -173.10455l0 0c0 -22.67717 9.321625 -41.06064 20.820465 -41.06064c11.49884 0 20.820465 18.383469 20.820465 41.06064l0 173.10455l0 0c0 22.677155 -9.321625 41.06064 -20.820465 41.06064c-11.49884 0 -20.820465 -18.383484 -20.820465 -41.06064z" fill-rule="nonzero"></path><path stroke="#000000" stroke-width="2.0" stroke-linejoin="round" stroke-linecap="butt" d="m323.8189 337.68643l0 -173.10455l0 0c0 -22.67717 9.321625 -41.06064 20.820465 -41.06064c11.49884 0 20.820465 18.383469 20.820465 41.06064l0 173.10455l0 0c0 22.677155 -9.321625 41.06064 -20.820465 41.06064c-11.49884 0 -20.820465 -18.383484 -20.820465 -41.06064z" fill-rule="nonzero"></path><path fill="#000000" d="m347.13748 349.44867l-0.265625 -2.671875q1.34375 -0.234375 1.984375 -0.96875q0.625 -0.75 0.625 -2.0q0 -1.328125 -0.5625 -2.0q-0.5625 -0.671875 -1.3125 -0.671875q-0.484375 0 -0.8125 0.28125q-0.34375 0.28125 -0.59375 0.984375q-0.171875 0.484375 -0.59375 2.203125q-0.546875 2.203125 -1.34375 3.09375q-1.125 1.265625 -2.734375 1.265625q-1.046875 0 -1.953125 -0.59375q-0.90625 -0.59375 -1.375 -1.703125q-0.46875 -1.109375 -0.46875 -2.671875q0 -2.5625 1.125 -3.859375q1.109375 -1.296875 2.984375 -1.359375l0.125 2.75q-1.046875 0.171875 -1.5 0.75q-0.46875 0.578125 -0.46875 1.75q0 1.1875 0.5 1.875q0.3125 0.4375 0.84375 0.4375q0.484375 0 0.828125 -0.421875q0.421875 -0.515625 0.90625 -2.515625q0.46875 -2.0 0.984375 -2.953125q0.5 -0.96875 1.375 -1.515625q0.875 -0.546875 2.15625 -0.546875q1.171875 0 2.203125 0.65625q1.015625 0.640625 1.515625 1.828125q0.484375 1.1875 0.484375 2.96875q0 2.578125 -1.1875 3.96875q-1.1875 1.375 -3.46875 1.640625zm-0.640625 -12.521698q-1.296875 0 -2.515625 -0.640625q-1.21875 -0.640625 -1.859375 -1.8125q-0.640625 -1.171875 -0.640625 -2.609375q0 -2.25 1.453125 -3.671875q1.453125 -1.421875 3.671875 -1.421875q2.234375 0 3.703125 1.4375q1.46875 1.4375 1.46875 3.625q0 1.359375 -0.609375 2.59375q-0.609375 1.21875 -1.796875 1.859375q-1.1875 0.640625 -2.875 0.640625zm0.140625 -2.671875q1.46875 0 2.25 -0.6875q0.765625 -0.703125 0.765625 -1.71875q0 -1.015625 -0.765625 -1.703125q-0.78125 -0.703125 -2.265625 -0.703125q-1.453125 0 -2.234375 0.703125q-0.78125 0.6875 -0.78125 1.703125q0 1.015625 0.78125 1.71875q0.78125 0.6875 2.25 0.6875zm-4.9375 -8.177246l0 -1.453125l-0.734375 0q-1.25 0 -1.859375 -0.265625q-0.609375 -0.265625 -0.984375 -0.96875q-0.390625 -0.71875 -0.390625 -1.796875q0 -1.109375 0.328125 -2.1875l1.8125 0.359375q-0.140625 0.625 -0.140625 1.203125q0 0.5625 0.265625 0.8125q0.265625 0.234375 1.015625 0.234375l0.6875 0l0 -1.9375l2.0625 0l0 1.9375l7.796875 0l0 2.609375l-7.796875 0l0 1.453125l-2.0625 0zm0 -11.868927l2.078125 0l0 1.78125l3.984375 0q1.203125 0 1.40625 -0.046875q0.1875 -0.0625 0.328125 -0.234375q0.125 -0.1875 0.125 -0.453125q0 -0.359375 -0.25 -1.046875l2.015625 -0.21875q0.390625 0.90625 0.390625 2.0625q0 0.703125 -0.234375 1.265625q-0.234375 0.5625 -0.609375 0.828125q-0.375 0.265625 -1.015625 0.375q-0.453125 0.078125 -1.84375 0.078125l-4.296875 0l0 1.203125l-2.078125 0l0 -1.203125l-1.953125 0l-1.515625 -2.609375l3.46875 0l0 -1.78125zm9.859375 -3.540802l-9.859375 3.125l0 -2.53125l6.46875 -1.859375l-6.46875 -1.6875l0 -2.515625l6.46875 -1.640625l-6.46875 -1.890625l0 -2.5625l9.859375 3.15625l0 2.515625l-6.34375 1.6875l6.34375 1.671875l0 2.53125zm-6.84375 -14.620789l-0.4375 2.359375q-1.421875 -0.390625 -2.109375 -1.359375q-0.6875 -0.984375 -0.6875 -2.90625q0 -1.734375 0.421875 -2.59375q0.40625 -0.859375 1.046875 -1.203125q0.625 -0.34375 2.328125 -0.34375l3.046875 0.03125q1.296875 0 1.921875 -0.125q0.609375 -0.125 1.3125 -0.46875l0 2.578125q-0.265625 0.09375 -0.765625 0.25q-0.234375 0.0625 -0.3125 0.09375q0.65625 0.65625 0.984375 1.421875q0.3125 0.765625 0.3125 1.625q0 1.515625 -0.8125 2.40625q-0.828125 0.875 -2.09375 0.875q-0.84375 0 -1.484375 -0.390625q-0.65625 -0.40625 -1.0 -1.125q-0.359375 -0.71875 -0.625 -2.078125q-0.328125 -1.828125 -0.625 -2.53125l-0.265625 0q-0.75 0 -1.0625 0.375q-0.328125 0.359375 -0.328125 1.390625q0 0.703125 0.28125 1.09375q0.265625 0.390625 0.953125 0.625zm2.109375 -3.484375q0.171875 0.5 0.40625 1.59375q0.234375 1.078125 0.453125 1.40625q0.359375 0.515625 0.921875 0.515625q0.546875 0 0.953125 -0.40625q0.390625 -0.40625 0.390625 -1.046875q0 -0.703125 -0.46875 -1.34375q-0.359375 -0.46875 -0.859375 -0.625q-0.34375 -0.09375 -1.28125 -0.09375l-0.515625 0zm4.734375 -7.4382324l0 2.609375l-9.859375 0l0 -2.421875l1.40625 0q-0.984375 -0.625 -1.296875 -1.109375q-0.328125 -0.5 -0.328125 -1.140625q0 -0.890625 0.5 -1.71875l2.265625 0.8125q-0.421875 0.65625 -0.421875 1.21875q0 0.546875 0.296875 0.9375q0.296875 0.375 1.09375 0.59375q0.78125 0.21875 3.296875 0.21875l3.046875 0zm-3.140625 -10.463379l0.4375 -2.609375q1.4375 0.5 2.1875 1.59375q0.734375 1.078125 0.734375 2.703125q0 2.5625 -1.671875 3.796875q-1.34375 0.96875 -3.40625 0.96875q-2.4375 0 -3.828125 -1.265625q-1.390625 -1.28125 -1.390625 -3.25q0 -2.1875 1.453125 -3.453125q1.453125 -1.28125 4.453125 -1.234375l0 6.53125q1.15625 -0.015625 1.8125 -0.625q0.640625 -0.609375 0.640625 -1.5q0 -0.609375 -0.328125 -1.03125q-0.34375 -0.421875 -1.09375 -0.625zm-2.625 -0.15625q-1.140625 0.03125 -1.71875 0.59375q-0.59375 0.546875 -0.59375 1.34375q0 0.859375 0.625 1.40625q0.609375 0.5625 1.6875 0.546875l0 -3.890625zm5.765625 -9.684021l-13.59375 0l0 -4.109375l9.265625 -2.46875l-9.265625 -2.4375l0 -4.125l13.59375 0l0 2.546875l-10.703125 0l10.703125 2.703125l0 2.640625l-10.703125 2.703125l10.703125 0l0 2.546875zm-6.84375 -17.509552l-0.4375 2.359375q-1.421875 -0.390625 -2.109375 -1.359375q-0.6875 -0.984375 -0.6875 -2.90625q0 -1.734375 0.421875 -2.59375q0.40625 -0.859375 1.046875 -1.203125q0.625 -0.34375 2.328125 -0.34375l3.046875 0.03125q1.296875 0 1.921875 -0.125q0.609375 -0.125 1.3125 -0.46875l0 2.578125q-0.265625 0.09375 -0.765625 0.25q-0.234375 0.0625 -0.3125 0.09375q0.65625 0.65625 0.984375 1.421875q0.3125 0.765625 0.3125 1.625q0 1.515625 -0.8125 2.40625q-0.828125 0.875 -2.09375 0.875q-0.84375 0 -1.484375 -0.390625q-0.65625 -0.40625 -1.0 -1.125q-0.359375 -0.71875 -0.625 -2.078125q-0.328125 -1.828125 -0.625 -2.53125l-0.265625 0q-0.75 0 -1.0625 0.375q-0.328125 0.359375 -0.328125 1.390625q0 0.703125 0.28125 1.09375q0.265625 0.390625 0.953125 0.625zm2.109375 -3.484375q0.171875 0.5 0.40625 1.59375q0.234375 1.078125 0.453125 1.40625q0.359375 0.515625 0.921875 0.515625q0.546875 0 0.953125 -0.40625q0.390625 -0.40625 0.390625 -1.046875q0 -0.703125 -0.46875 -1.34375q-0.359375 -0.46875 -0.859375 -0.625q-0.34375 -0.09375 -1.28125 -0.09375l-0.515625 0zm4.734375 -13.906967l0 2.609375l-5.03125 0q-1.59375 0 -2.0625 0.171875q-0.46875 0.15625 -0.71875 0.53125q-0.265625 0.375 -0.265625 0.90625q0 0.6875 0.375 1.234375q0.359375 0.53125 0.984375 0.734375q0.609375 0.1875 2.25 0.1875l4.46875 0l0 2.609375l-9.859375 0l0 -2.421875l1.453125 0q-1.671875 -1.296875 -1.671875 -3.25q0 -0.859375 0.3125 -1.578125q0.3125 -0.71875 0.796875 -1.078125q0.484375 -0.359375 1.09375 -0.5q0.609375 -0.15625 1.75 -0.15625l6.125 0zm-6.84375 -4.380356l-0.4375 2.359375q-1.421875 -0.390625 -2.109375 -1.359375q-0.6875 -0.984375 -0.6875 -2.90625q0 -1.734375 0.421875 -2.59375q0.40625 -0.859375 1.046875 -1.203125q0.625 -0.34375 2.328125 -0.34375l3.046875 0.03125q1.296875 0 1.921875 -0.125q0.609375 -0.125 1.3125 -0.46875l0 2.578125q-0.265625 0.09375 -0.765625 0.25q-0.234375 0.0625 -0.3125 0.09375q0.65625 0.65625 0.984375 1.421875q0.3125 0.765625 0.3125 1.625q0 1.515625 -0.8125 2.40625q-0.828125 0.875 -2.09375 0.875q-0.84375 0 -1.484375 -0.390625q-0.65625 -0.40625 -1.0 -1.125q-0.359375 -0.71875 -0.625 -2.078125q-0.328125 -1.828125 -0.625 -2.53125l-0.265625 0q-0.75 0 -1.0625 0.375q-0.328125 0.359375 -0.328125 1.390625q0 0.703125 0.28125 1.09375q0.265625 0.390625 0.953125 0.625zm2.109375 -3.484375q0.171875 0.5 0.40625 1.59375q0.234375 1.078125 0.453125 1.40625q0.359375 0.515625 0.921875 0.515625q0.546875 0 0.953125 -0.40625q0.390625 -0.40625 0.390625 -1.046875q0 -0.703125 -0.46875 -1.34375q-0.359375 -0.46875 -0.859375 -0.625q-0.34375 -0.09375 -1.28125 -0.09375l-0.515625 0zm5.390625 -4.703842l0.359375 -2.96875q0.515625 -0.078125 0.703125 -0.34375q0.28125 -0.375 0.28125 -1.171875q0 -1.03125 -0.296875 -1.53125q-0.203125 -0.34375 -0.65625 -0.515625q-0.328125 -0.125 -1.203125 -0.125l-1.4375 0q1.59375 1.171875 1.59375 2.953125q0 1.984375 -1.671875 3.140625q-1.328125 0.90625 -3.3125 0.90625q-2.46875 0 -3.78125 -1.1875q-1.3125 -1.1875 -1.3125 -2.96875q0 -1.828125 1.609375 -3.015625l-1.390625 0l0 -2.4375l8.84375 0q1.75 0 2.609375 0.296875q0.859375 0.28125 1.34375 0.796875q0.5 0.515625 0.78125 1.390625q0.28125 0.859375 0.28125 2.1875q0 2.515625 -0.859375 3.5625q-0.859375 1.046875 -2.171875 1.046875q-0.140625 0 -0.3125 -0.015625zm-5.78125 -2.328125q1.5625 0 2.296875 -0.609375q0.71875 -0.609375 0.71875 -1.5q0 -0.953125 -0.734375 -1.609375q-0.75 -0.65625 -2.21875 -0.65625q-1.53125 0 -2.265625 0.640625q-0.75 0.625 -0.75 1.578125q0 0.9375 0.734375 1.546875q0.71875 0.609375 2.21875 0.609375zm1.984375 -15.005356l0.4375 -2.609375q1.4375 0.5 2.1875 1.59375q0.734375 1.078125 0.734375 2.703125q0 2.5625 -1.671875 3.796875q-1.34375 0.96875 -3.40625 0.96875q-2.4375 0 -3.828125 -1.265625q-1.390625 -1.28125 -1.390625 -3.25q0 -2.1875 1.453125 -3.453125q1.453125 -1.28125 4.453125 -1.234375l0 6.53125q1.15625 -0.015625 1.8125 -0.625q0.640625 -0.609375 0.640625 -1.5q0 -0.609375 -0.328125 -1.03125q-0.34375 -0.421875 -1.09375 -0.625zm-2.625 -0.15625q-1.140625 0.03125 -1.71875 0.59375q-0.59375 0.546875 -0.59375 1.34375q0 0.859375 0.625 1.40625q0.609375 0.5625 1.6875 0.546875l0 -3.890625zm-4.09375 -4.328842l0 -2.40625l1.359375 0q-1.578125 -1.28125 -1.578125 -3.0625q0 -0.953125 0.390625 -1.640625q0.390625 -0.703125 1.1875 -1.140625q-0.796875 -0.65625 -1.1875 -1.40625q-0.390625 -0.75 -0.390625 -1.609375q0 -1.078125 0.453125 -1.828125q0.4375 -0.75 1.28125 -1.125q0.640625 -0.265625 2.046875 -0.265625l6.296875 0l0 2.609375l-5.625 0q-1.46875 0 -1.90625 0.265625q-0.546875 0.359375 -0.546875 1.109375q0 0.546875 0.34375 1.03125q0.328125 0.484375 0.96875 0.703125q0.640625 0.203125 2.03125 0.203125l4.734375 0l0 2.609375l-5.40625 0q-1.4375 0 -1.84375 0.140625q-0.421875 0.140625 -0.625 0.4375q-0.203125 0.28125 -0.203125 0.78125q0 0.609375 0.328125 1.09375q0.3125 0.484375 0.9375 0.6875q0.609375 0.203125 2.03125 0.203125l4.78125 0l0 2.609375l-9.859375 0zm6.71875 -22.47902l0.4375 -2.609375q1.4375 0.5 2.1875 1.59375q0.734375 1.078125 0.734375 2.703125q0 2.5625 -1.671875 3.796875q-1.34375 0.96875 -3.40625 0.96875q-2.4375 0 -3.828125 -1.265625q-1.390625 -1.28125 -1.390625 -3.25q0 -2.1875 1.453125 -3.453125q1.453125 -1.28125 4.453125 -1.234375l0 6.53125q1.15625 -0.015625 1.8125 -0.625q0.640625 -0.609375 0.640625 -1.5q0 -0.609375 -0.328125 -1.03125q-0.34375 -0.421875 -1.09375 -0.625zm-2.625 -0.15625q-1.140625 0.03125 -1.71875 0.59375q-0.59375 0.546875 -0.59375 1.34375q0 0.859375 0.625 1.40625q0.609375 0.5625 1.6875 0.546875l0 -3.890625zm5.765625 -13.485092l0 2.609375l-5.03125 0q-1.59375 0 -2.0625 0.171875q-0.46875 0.15625 -0.71875 0.53125q-0.265625 0.375 -0.265625 0.90625q0 0.6875 0.375 1.234375q0.359375 0.53125 0.984375 0.734375q0.609375 0.1875 2.25 0.1875l4.46875 0l0 2.609375l-9.859375 0l0 -2.421875l1.453125 0q-1.671875 -1.296875 -1.671875 -3.25q0 -0.859375 0.3125 -1.578125q0.3125 -0.71875 0.796875 -1.078125q0.484375 -0.359375 1.09375 -0.5q0.609375 -0.15625 1.75 -0.15625l6.125 0zm-9.859375 -6.942856l2.078125 0l0 1.78125l3.984375 0q1.203125 0 1.40625 -0.046875q0.1875 -0.0625 0.328125 -0.234375q0.125 -0.1875 0.125 -0.453125q0 -0.359375 -0.25 -1.046875l2.015625 -0.21875q0.390625 0.90625 0.390625 2.0625q0 0.703125 -0.234375 1.265625q-0.234375 0.5625 -0.609375 0.828125q-0.375 0.265625 -1.015625 0.375q-0.453125 0.078125 -1.84375 0.078125l-4.296875 0l0 1.203125l-2.078125 0l0 -1.203125l-1.953125 0l-1.515625 -2.609375l3.46875 0l0 -1.78125z" fill-rule="nonzero"></path></g></svg>

